<svg width="581" height="200" viewBox="0 0 581 200" fill="none" xmlns="http://www.w3.org/2000/svg">
<path d="M0 43.6568C0 19.5458 19.5458 0 43.6568 0L156.343 0C180.454 0 200 19.5458 200 43.6568L200 156.342C200 180.453 180.454 199.999 156.343 199.999L43.6568 199.999C19.5458 199.999 0 180.453 0 156.342L0 43.6568Z" fill="#161616"/>
<path fill-rule="evenodd" clip-rule="evenodd" d="M164 124L100 38L36 124H72.4113L100 86.9277L127.589 124H164Z" fill="#F1F1F1"/>
<path fill-rule="evenodd" clip-rule="evenodd" d="M72 124L100 162L128 124L112.07 124L100 140.381L87.9299 124L72 124Z" fill="#F1F1F1"/>
<path d="M297.993 148.875C291.37 148.875 285.579 147.417 280.621 144.5C275.706 141.543 271.873 137.439 269.123 132.19C266.374 126.899 264.999 120.734 264.999 113.693C264.999 106.32 266.353 99.9457 269.061 94.5716C271.769 89.1559 275.539 84.99 280.371 82.0738C285.246 79.116 290.953 77.6371 297.493 77.6371C304.284 77.6371 310.054 79.1993 314.803 82.3238C319.594 85.4482 323.176 89.9058 325.551 95.6964C327.967 101.487 329.009 108.382 328.676 116.38H317.427V112.381C317.303 104.091 315.615 97.9044 312.366 93.8218C309.116 89.6975 304.284 87.6353 297.868 87.6353C290.995 87.6353 285.766 89.8433 282.184 94.2592C278.601 98.6751 276.81 105.007 276.81 113.256C276.81 121.213 278.601 127.378 282.184 131.753C285.766 136.127 290.87 138.314 297.493 138.314C301.951 138.314 305.825 137.293 309.116 135.252C312.408 133.211 314.99 130.274 316.865 126.441L327.551 130.128C324.926 136.085 320.969 140.709 315.678 144.001C310.429 147.25 304.534 148.875 297.993 148.875ZM273.06 116.38V107.444H322.927V116.38H273.06ZM380.269 147C376.27 147.792 372.312 148.104 368.396 147.937C364.522 147.812 361.064 147.042 358.023 145.625C354.982 144.167 352.67 141.918 351.087 138.876C349.754 136.21 349.025 133.523 348.9 130.815C348.816 128.066 348.775 124.962 348.775 121.504V60.765H359.898V121.005C359.898 123.754 359.918 126.108 359.96 128.066C360.043 130.024 360.481 131.711 361.272 133.127C362.772 135.794 365.147 137.356 368.396 137.814C371.687 138.272 375.645 138.147 380.269 137.439V147ZM335.089 88.6977V79.5118H380.269V88.6977H335.089ZM442.025 147V113.193C442.025 109.986 441.733 106.903 441.15 103.945C440.608 100.987 439.629 98.3418 438.213 96.0089C436.838 93.6343 434.964 91.7596 432.589 90.3849C430.256 89.0101 427.298 88.3227 423.716 88.3227C420.924 88.3227 418.383 88.8018 416.092 89.76C413.842 90.6765 411.905 92.0929 410.28 94.0092C408.656 95.9256 407.385 98.3418 406.469 101.258C405.594 104.132 405.156 107.528 405.156 111.444L397.845 109.194C397.845 102.654 399.012 97.0504 401.345 92.3845C403.719 87.677 407.031 84.0735 411.28 81.5739C415.571 79.0327 420.612 77.7621 426.403 77.7621C430.777 77.7621 434.505 78.4494 437.588 79.8242C440.671 81.199 443.233 83.032 445.274 85.3232C447.316 87.5729 448.92 90.1141 450.086 92.9469C451.252 95.7381 452.065 98.5918 452.523 101.508C453.023 104.382 453.273 107.111 453.273 109.694V147H442.025ZM393.908 147V57.0157H403.907V106.695H405.156V147H393.908ZM505.013 148.875C498.056 148.875 491.911 147.437 486.579 144.563C481.246 141.688 477.059 137.668 474.018 132.503C471.019 127.295 469.519 121.192 469.519 114.193V57.0782L480.767 57.0157V113.256C480.767 117.505 481.475 121.213 482.892 124.379C484.35 127.503 486.266 130.107 488.641 132.19C491.015 134.273 493.619 135.835 496.452 136.877C499.326 137.877 502.18 138.377 505.013 138.377C507.887 138.377 510.762 137.856 513.636 136.814C516.511 135.773 519.115 134.231 521.448 132.19C523.822 130.107 525.718 127.483 527.134 124.316C528.551 121.15 529.259 117.463 529.259 113.256V57.0157H540.507V114.193C540.507 121.15 538.986 127.233 535.945 132.44C532.946 137.647 528.78 141.688 523.447 144.563C518.115 147.437 511.97 148.875 505.013 148.875ZM559.254 147V57.0157H570.378V147H559.254Z" fill="black"/>
</svg>
